<?xml version="1.0" encoding="UTF-8" standalone="no"?>
<!DOCTYPE svg PUBLIC "-//W3C//DTD SVG 1.1//EN" "http://www.w3.org/Graphics/SVG/1.1/DTD/svg11.dtd">
<svg width="100%" height="100%" viewBox="0 0 811 272" version="1.1" xmlns="http://www.w3.org/2000/svg" xmlns:xlink="http://www.w3.org/1999/xlink" xml:space="preserve" xmlns:serif="http://www.serif.com/" style="fill-rule:evenodd;clip-rule:evenodd;stroke-miterlimit:1.41421;">
    <g>
        <rect x="0.27" y="0.739" width="810" height="270" style="fill:none;stroke:black;stroke-width:0.5px;"/>
        <path d="M20.926,223.895L20.926,225.594L18.656,225.594L18.656,261.879L20.926,261.879L20.926,263.578L60.609,263.578L60.609,261.879L62.879,261.879L62.879,225.594L60.609,225.594L60.609,223.895L20.926,223.895Z" style="fill:none;stroke:black;stroke-width:0.5px;"/>
        <path d="M88.426,223.895L88.426,225.594L86.16,225.594L86.16,261.879L88.426,261.879L88.426,263.578L128.108,263.578L128.108,261.879L130.379,261.879L130.379,225.594L128.108,225.594L128.108,223.895L88.426,223.895Z" style="fill:none;stroke:black;stroke-width:0.5px;"/>
        <path d="M149.176,223.895L149.176,225.594L146.906,225.594L146.906,261.879L149.176,261.879L149.176,263.578L188.859,263.578L188.859,261.879L191.129,261.879L191.129,225.594L188.859,225.594L188.859,223.895L149.176,223.895Z" style="fill:none;stroke:black;stroke-width:0.5px;"/>
        <path d="M601.426,223.895L601.426,225.594L599.16,225.594L599.16,261.879L601.426,261.879L601.426,263.578L641.109,263.578L641.109,261.879L643.379,261.879L643.379,225.594L641.109,225.594L641.109,223.895L601.426,223.895Z" style="fill:none;stroke:black;stroke-width:0.5px;"/>
        <path d="M41.176,169.895L41.176,171.594L38.906,171.594L38.906,183.219L36.852,183.219L36.852,174.063L31.961,174.063L31.961,171.449L22.609,171.449L22.609,174.063L17.719,174.063L17.719,183.219L15.379,183.219L15.379,191.157L17.719,191.157L17.719,208.93L22.609,208.93L22.609,211.707L31.961,211.707L31.961,208.93L36.852,208.93L36.852,196.258L38.906,196.258L38.906,207.879L41.176,207.879L41.176,209.578L80.859,209.578L80.859,207.879L83.129,207.879L83.129,196.258L85.184,196.258L85.184,208.93L90.074,208.93L90.074,211.707L99.426,211.707L99.426,208.93L104.316,208.93L104.316,191.157L106.656,191.157L106.656,183.219L104.316,183.219L104.316,174.063L99.426,174.063L99.426,171.449L90.074,171.449L90.074,174.063L85.184,174.063L85.184,183.219L83.129,183.219L83.129,171.594L80.859,171.594L80.859,169.895L41.176,169.895Z" style="fill:none;stroke:black;stroke-width:0.5px;"/>
        <path d="M128.925,169.895L128.925,171.594L126.656,171.594L126.656,207.879L128.925,207.879L128.925,209.578L168.609,209.578L168.609,207.879L170.879,207.879L170.879,171.594L168.609,171.594L168.609,169.895L128.925,169.895Z" style="fill:none;stroke:black;stroke-width:0.5px;"/>
        <path d="M182.926,169.895L182.926,171.594L180.656,171.594L180.656,207.879L182.926,207.879L182.926,209.578L222.609,209.578L222.609,207.879L224.879,207.879L224.879,171.594L222.609,171.594L222.609,169.895L182.926,169.895Z" style="fill:none;stroke:black;stroke-width:0.5px;"/>
        <path d="M236.926,169.895L236.926,171.594L234.656,171.594L234.656,207.879L236.926,207.879L236.926,209.578L276.609,209.578L276.609,207.879L278.879,207.879L278.879,171.594L276.609,171.594L276.609,169.895L236.926,169.895Z" style="fill:none;stroke:black;stroke-width:0.5px;"/>
        <path d="M290.926,169.895L290.926,171.594L288.656,171.594L288.656,207.879L290.926,207.879L290.926,209.578L330.609,209.578L330.609,207.879L332.879,207.879L332.879,171.594L330.609,171.594L330.609,169.895L290.926,169.895Z" style="fill:none;stroke:black;stroke-width:0.5px;"/>
        <path d="M344.926,169.895L344.926,171.594L342.656,171.594L342.656,207.879L344.926,207.879L344.926,209.578L384.609,209.578L384.609,207.879L386.879,207.879L386.879,171.594L384.609,171.594L384.609,169.895L344.926,169.895Z" style="fill:none;stroke:black;stroke-width:0.5px;"/>
        <path d="M398.926,169.895L398.926,171.594L396.656,171.594L396.656,207.879L398.926,207.879L398.926,209.578L438.609,209.578L438.609,207.879L440.879,207.879L440.879,171.594L438.609,171.594L438.609,169.895L398.926,169.895Z" style="fill:none;stroke:black;stroke-width:0.5px;"/>
        <path d="M452.926,169.895L452.926,171.594L450.656,171.594L450.656,207.879L452.926,207.879L452.926,209.578L492.609,209.578L492.609,207.879L494.879,207.879L494.879,171.594L492.609,171.594L492.609,169.895L452.926,169.895Z" style="fill:none;stroke:black;stroke-width:0.5px;"/>
        <path d="M506.926,169.895L506.926,171.594L504.656,171.594L504.656,207.879L506.926,207.879L506.926,209.578L546.609,209.578L546.609,207.879L548.879,207.879L548.879,171.594L546.609,171.594L546.609,169.895L506.926,169.895Z" style="fill:none;stroke:black;stroke-width:0.5px;"/>
        <path d="M560.926,169.895L560.926,171.594L558.656,171.594L558.656,207.879L560.926,207.879L560.926,209.578L600.609,209.578L600.609,207.879L602.879,207.879L602.879,171.594L600.609,171.594L600.609,169.895L560.926,169.895Z" style="fill:none;stroke:black;stroke-width:0.5px;"/>
        <path d="M614.926,169.895L614.926,171.594L612.656,171.594L612.656,207.879L614.926,207.879L614.926,209.578L654.609,209.578L654.609,207.879L656.879,207.879L656.879,171.594L654.609,171.594L654.609,169.895L614.926,169.895Z" style="fill:none;stroke:black;stroke-width:0.5px;"/>
        <path d="M27.676,115.895L27.676,117.594L25.406,117.594L25.406,153.879L27.676,153.879L27.676,155.578L67.359,155.578L67.359,153.879L69.625,153.879L69.625,117.594L67.359,117.594L67.359,115.895L27.676,115.895Z" style="fill:none;stroke:black;stroke-width:0.5px;"/>
        <path d="M101.926,115.895L101.926,117.594L99.656,117.594L99.656,153.879L101.926,153.879L101.926,155.578L141.609,155.578L141.609,153.879L143.879,153.879L143.879,117.594L141.609,117.594L141.609,115.895L101.926,115.895Z" style="fill:none;stroke:black;stroke-width:0.5px;"/>
        <path d="M155.926,115.895L155.926,117.594L153.656,117.594L153.656,153.879L155.926,153.879L155.926,155.578L195.609,155.578L195.609,153.879L197.879,153.879L197.879,117.594L195.609,117.594L195.609,115.895L155.926,115.895Z" style="fill:none;stroke:black;stroke-width:0.5px;"/>
        <path d="M209.926,115.895L209.926,117.594L207.656,117.594L207.656,153.879L209.926,153.879L209.926,155.578L249.609,155.578L249.609,153.879L251.879,153.879L251.879,117.594L249.609,117.594L249.609,115.895L209.926,115.895Z" style="fill:none;stroke:black;stroke-width:0.5px;"/>
        <path d="M263.926,115.895L263.926,117.594L261.656,117.594L261.656,153.879L263.926,153.879L263.926,155.578L303.609,155.578L303.609,153.879L305.879,153.879L305.879,117.594L303.609,117.594L303.609,115.895L263.926,115.895Z" style="fill:none;stroke:black;stroke-width:0.5px;"/>
        <path d="M317.926,115.895L317.926,117.594L315.656,117.594L315.656,153.879L317.926,153.879L317.926,155.578L357.609,155.578L357.609,153.879L359.879,153.879L359.879,117.594L357.609,117.594L357.609,115.895L317.926,115.895Z" style="fill:none;stroke:black;stroke-width:0.5px;"/>
        <path d="M371.926,115.895L371.926,117.594L369.656,117.594L369.656,153.879L371.926,153.879L371.926,155.578L411.609,155.578L411.609,153.879L413.879,153.879L413.879,117.594L411.609,117.594L411.609,115.895L371.926,115.895Z" style="fill:none;stroke:black;stroke-width:0.5px;"/>
        <path d="M425.926,115.895L425.926,117.594L423.656,117.594L423.656,153.879L425.926,153.879L425.926,155.578L465.609,155.578L465.609,153.879L467.879,153.879L467.879,117.594L465.609,117.594L465.609,115.895L425.926,115.895Z" style="fill:none;stroke:black;stroke-width:0.5px;"/>
        <path d="M479.926,115.895L479.926,117.594L477.656,117.594L477.656,153.879L479.926,153.879L479.926,155.578L519.609,155.578L519.609,153.879L521.879,153.879L521.879,117.594L519.609,117.594L519.609,115.895L479.926,115.895Z" style="fill:none;stroke:black;stroke-width:0.5px;"/>
        <path d="M533.926,115.895L533.926,117.594L531.656,117.594L531.656,153.879L533.926,153.879L533.926,155.578L573.609,155.578L573.609,153.879L575.879,153.879L575.879,117.594L573.609,117.594L573.609,115.895L533.926,115.895Z" style="fill:none;stroke:black;stroke-width:0.5px;"/>
        <path d="M587.926,115.895L587.926,117.594L585.656,117.594L585.656,153.879L587.926,153.879L587.926,155.578L627.609,155.578L627.609,153.879L629.879,153.879L629.879,117.594L627.609,117.594L627.609,115.895L587.926,115.895Z" style="fill:none;stroke:black;stroke-width:0.5px;"/>
        <path d="M641.926,115.895L641.926,117.594L639.656,117.594L639.656,153.879L641.926,153.879L641.926,155.578L681.609,155.578L681.609,153.879L683.879,153.879L683.879,117.594L681.609,117.594L681.609,115.895L641.926,115.895Z" style="fill:none;stroke:black;stroke-width:0.5px;"/>
        <path d="M20.926,61.895L20.926,63.594L18.656,63.594L18.656,99.879L20.926,99.879L20.926,101.578L60.609,101.578L60.609,99.879L62.879,99.879L62.879,63.594L60.609,63.594L60.609,61.895L20.926,61.895Z" style="fill:none;stroke:black;stroke-width:0.5px;"/>
        <path d="M88.426,61.895L88.426,63.594L86.16,63.594L86.16,99.879L88.426,99.879L88.426,101.578L128.108,101.578L128.108,99.879L130.379,99.879L130.379,63.594L128.108,63.594L128.108,61.895L88.426,61.895Z" style="fill:none;stroke:black;stroke-width:0.5px;"/>
        <path d="M142.426,61.895L142.426,63.594L140.16,63.594L140.16,99.879L142.426,99.879L142.426,101.578L182.109,101.578L182.109,99.879L184.379,99.879L184.379,63.594L182.109,63.594L182.109,61.895L142.426,61.895Z" style="fill:none;stroke:black;stroke-width:0.5px;"/>
        <path d="M196.426,61.895L196.426,63.594L194.16,63.594L194.16,99.879L196.426,99.879L196.426,101.578L236.109,101.578L236.109,99.879L238.379,99.879L238.379,63.594L236.109,63.594L236.109,61.895L196.426,61.895Z" style="fill:none;stroke:black;stroke-width:0.5px;"/>
        <path d="M250.426,61.895L250.426,63.594L248.16,63.594L248.16,99.879L250.426,99.879L250.426,101.578L290.109,101.578L290.109,99.879L292.379,99.879L292.379,63.594L290.109,63.594L290.109,61.895L250.426,61.895Z" style="fill:none;stroke:black;stroke-width:0.5px;"/>
        <path d="M304.426,61.895L304.426,63.594L302.16,63.594L302.16,99.879L304.426,99.879L304.426,101.578L344.109,101.578L344.109,99.879L346.379,99.879L346.379,63.594L344.109,63.594L344.109,61.895L304.426,61.895Z" style="fill:none;stroke:black;stroke-width:0.5px;"/>
        <path d="M358.426,61.895L358.426,63.594L356.156,63.594L356.156,99.879L358.426,99.879L358.426,101.578L398.109,101.578L398.109,99.879L400.379,99.879L400.379,63.594L398.109,63.594L398.109,61.895L358.426,61.895Z" style="fill:none;stroke:black;stroke-width:0.5px;"/>
        <path d="M412.426,61.895L412.426,63.594L410.16,63.594L410.16,99.879L412.426,99.879L412.426,101.578L452.109,101.578L452.109,99.879L454.379,99.879L454.379,63.594L452.109,63.594L452.109,61.895L412.426,61.895Z" style="fill:none;stroke:black;stroke-width:0.5px;"/>
        <path d="M466.426,61.895L466.426,63.594L464.16,63.594L464.16,99.879L466.426,99.879L466.426,101.578L506.109,101.578L506.109,99.879L508.379,99.879L508.379,63.594L506.109,63.594L506.109,61.895L466.426,61.895Z" style="fill:none;stroke:black;stroke-width:0.5px;"/>
        <path d="M520.426,61.895L520.426,63.594L518.159,63.594L518.159,99.879L520.426,99.879L520.426,101.578L560.109,101.578L560.109,99.879L562.379,99.879L562.379,63.594L560.109,63.594L560.109,61.895L520.426,61.895Z" style="fill:none;stroke:black;stroke-width:0.5px;"/>
        <path d="M574.426,61.895L574.426,63.594L572.16,63.594L572.16,99.879L574.426,99.879L574.426,101.578L614.109,101.578L614.109,99.879L616.379,99.879L616.379,63.594L614.109,63.594L614.109,61.895L574.426,61.895Z" style="fill:none;stroke:black;stroke-width:0.5px;"/>
        <path d="M628.426,61.895L628.426,63.594L626.16,63.594L626.16,99.879L628.426,99.879L628.426,101.578L668.109,101.578L668.109,99.879L670.379,99.879L670.379,63.594L668.109,63.594L668.109,61.895L628.426,61.895Z" style="fill:none;stroke:black;stroke-width:0.5px;"/>
        <path d="M682.426,61.895L682.426,63.594L680.16,63.594L680.16,99.879L682.426,99.879L682.426,101.578L722.109,101.578L722.109,99.879L724.379,99.879L724.379,63.594L722.109,63.594L722.109,61.895L682.426,61.895Z" style="fill:none;stroke:black;stroke-width:0.5px;"/>
        <path d="M7.426,7.895L7.426,9.594L5.16,9.594L5.16,45.879L7.426,45.879L7.426,47.578L47.109,47.578L47.109,45.879L49.379,45.879L49.379,9.594L47.109,9.594L47.109,7.895L7.426,7.895Z" style="fill:none;stroke:black;stroke-width:0.5px;"/>
        <path d="M61.426,7.895L61.426,9.594L59.16,9.594L59.16,45.879L61.426,45.879L61.426,47.578L101.109,47.578L101.109,45.879L103.379,45.879L103.379,9.594L101.109,9.594L101.109,7.895L61.426,7.895Z" style="fill:none;stroke:black;stroke-width:0.5px;"/>
        <path d="M115.426,7.895L115.426,9.594L113.16,9.594L113.16,45.879L115.426,45.879L115.426,47.578L155.109,47.578L155.109,45.879L157.379,45.879L157.379,9.594L155.109,9.594L155.109,7.895L115.426,7.895Z" style="fill:none;stroke:black;stroke-width:0.5px;"/>
        <path d="M169.426,7.895L169.426,9.594L167.16,9.594L167.16,45.879L169.426,45.879L169.426,47.578L209.109,47.578L209.109,45.879L211.379,45.879L211.379,9.594L209.109,9.594L209.109,7.895L169.426,7.895Z" style="fill:none;stroke:black;stroke-width:0.5px;"/>
        <path d="M223.426,7.895L223.426,9.594L221.16,9.594L221.16,45.879L223.426,45.879L223.426,47.578L263.109,47.578L263.109,45.879L265.375,45.879L265.375,9.594L263.109,9.594L263.109,7.895L223.426,7.895Z" style="fill:none;stroke:black;stroke-width:0.5px;"/>
        <path d="M277.422,7.895L277.422,9.594L275.16,9.594L275.16,45.879L277.422,45.879L277.422,47.578L317.109,47.578L317.109,45.879L319.375,45.879L319.375,9.594L317.109,9.594L317.109,7.895L277.422,7.895Z" style="fill:none;stroke:black;stroke-width:0.5px;"/>
        <path d="M331.422,7.895L331.422,9.594L329.156,9.594L329.156,45.879L331.422,45.879L331.422,47.578L371.109,47.578L371.109,45.879L373.379,45.879L373.379,9.594L371.109,9.594L371.109,7.895L331.422,7.895Z" style="fill:none;stroke:black;stroke-width:0.5px;"/>
        <path d="M385.426,7.895L385.426,9.594L383.16,9.594L383.16,45.879L385.426,45.879L385.426,47.578L425.109,47.578L425.109,45.879L427.379,45.879L427.379,9.594L425.109,9.594L425.109,7.895L385.426,7.895Z" style="fill:none;stroke:black;stroke-width:0.5px;"/>
        <path d="M439.426,7.895L439.426,9.594L437.16,9.594L437.16,45.879L439.426,45.879L439.426,47.578L479.109,47.578L479.109,45.879L481.379,45.879L481.379,9.594L479.109,9.594L479.109,7.895L439.426,7.895Z" style="fill:none;stroke:black;stroke-width:0.5px;"/>
        <path d="M493.426,7.895L493.426,9.594L491.16,9.594L491.16,45.879L493.426,45.879L493.426,47.578L533.109,47.578L533.109,45.879L535.379,45.879L535.379,9.594L533.109,9.594L533.109,7.895L493.426,7.895Z" style="fill:none;stroke:black;stroke-width:0.5px;"/>
        <path d="M547.426,7.895L547.426,9.594L545.16,9.594L545.16,45.879L547.426,45.879L547.426,47.578L587.109,47.578L587.109,45.879L589.379,45.879L589.379,9.594L587.109,9.594L587.109,7.895L547.426,7.895Z" style="fill:none;stroke:black;stroke-width:0.5px;"/>
        <path d="M601.426,7.895L601.426,9.594L599.16,9.594L599.16,45.879L601.426,45.879L601.426,47.578L641.109,47.578L641.109,45.879L643.379,45.879L643.379,9.594L641.109,9.594L641.109,7.895L601.426,7.895Z" style="fill:none;stroke:black;stroke-width:0.5px;"/>
        <path d="M655.426,7.895L655.426,9.594L653.16,9.594L653.16,45.879L655.426,45.879L655.426,47.578L695.109,47.578L695.109,45.879L697.379,45.879L697.379,9.594L695.109,9.594L695.109,7.895L655.426,7.895Z" style="fill:none;stroke:black;stroke-width:0.5px;"/>
        <path d="M709.426,7.895L709.426,9.594L707.16,9.594L707.16,45.879L709.426,45.879L709.426,47.578L749.109,47.578L749.109,45.879L751.379,45.879L751.379,9.594L749.109,9.594L749.109,7.895L709.426,7.895Z" style="fill:none;stroke:black;stroke-width:0.5px;"/>
        <path d="M763.426,7.895L763.426,9.594L761.16,9.594L761.16,45.879L763.426,45.879L763.426,47.578L803.109,47.578L803.109,45.879L805.379,45.879L805.379,9.594L803.109,9.594L803.109,7.895L763.426,7.895Z" style="fill:none;stroke:black;stroke-width:0.5px;"/>
        <path d="M540.676,261.879L538.406,261.879L538.406,225.594L540.676,225.594L540.676,223.895L587.109,223.895L587.109,225.594L589.379,225.594L589.379,261.879L587.109,261.879L587.109,263.578L540.676,263.578L540.676,261.879Z" style="fill:none;stroke:black;stroke-width:0.5px;"/>
        <path d="M601.426,223.895L601.426,225.594L599.16,225.594L599.16,261.879L601.426,261.879L601.426,263.578L641.109,263.578L641.109,261.879L643.379,261.879L643.379,225.594L641.109,225.594L641.109,223.895L601.426,223.895Z" style="fill:none;stroke:black;stroke-width:0.5px;"/>
        <path d="M713.906,183.219L713.906,171.594L716.172,171.594L716.172,169.895L782.859,169.895L782.859,171.594L785.129,171.594L785.129,207.879L782.859,207.879L782.859,209.578L774.426,209.578L774.426,211.707L765.074,211.707L765.074,209.578L716.172,209.578L716.172,207.879L713.906,207.879L713.906,196.258L711.852,196.258L711.852,208.93L708.609,208.93L708.609,209.578L706.961,209.578L706.961,211.707C706.962,211.707 697.61,211.707 697.61,211.707L697.61,209.578L668.927,209.578L668.927,207.879L666.657,207.879L666.657,171.594L668.927,171.594L668.927,169.895L708.61,169.895L708.61,171.594L710.88,171.594L710.88,174.063L711.853,174.063L711.853,183.219L713.907,183.219L713.906,183.219Z" style="fill:none;stroke:black;stroke-width:0.5px;"/>
        <path d="M803.109,225.594L805.379,225.594L805.379,261.879L803.109,261.879L803.109,263.578L749.926,263.578L749.109,263.578L709.426,263.578L708.609,263.578L655.426,263.578L655.426,261.879L653.16,261.879L653.16,225.594L655.426,225.594L655.426,223.895L803.109,223.895L803.109,225.594Z" style="fill:none;stroke:black;stroke-width:0.5px;"/>
        <path d="M789.609,63.594L791.879,63.594L791.879,65.438L792.191,65.438L792.191,70.328L794.801,70.328L794.801,79.684L792.191,79.684L792.191,84.571L791.879,84.571L791.879,86.629L794.656,86.629L794.656,88.895L796.359,88.895L796.359,128.578L795.152,128.578L795.152,137.157L794.801,137.157L794.801,147.149L792.816,147.149L792.816,154.926L787.926,154.926L787.926,157.707L778.57,157.707L778.57,154.926L773.684,154.926L773.684,152.035L771.625,152.035L771.625,153.879L769.359,153.879L769.359,155.578L720.457,155.578L720.457,157.707L711.105,157.707L711.105,155.578L695.926,155.578L695.926,153.879L693.656,153.879L693.656,117.594C693.657,117.594 695.927,117.594 695.927,117.594L695.927,115.895L756.677,115.895L756.677,101.578L749.927,101.578L749.927,99.879L747.657,99.879L747.657,63.594L749.927,63.594L749.927,61.895L789.61,61.895L789.61,63.594L789.609,63.594Z" style="fill:none;stroke:black;stroke-width:0.5px;"/>
        <path d="M394,223.895L394,223.896L431.859,223.896L431.859,225.595L434.129,225.595L434.129,237.219L470.906,237.219L470.906,225.594L473.176,225.594L473.176,223.895L512.859,223.895L512.859,225.449L517.926,225.449L517.926,228.063L522.815,228.063L522.815,237.219L525.152,237.219L525.152,245.157L522.815,245.157L522.815,262.926L517.926,262.926L517.926,265.707L508.57,265.707L508.57,263.578L473.176,263.578L473.176,261.879L470.906,261.879L470.906,250.254L434.129,250.254L434.129,261.88L431.859,261.88L431.859,263.579L392.176,263.579L392.176,263.578L391.359,263.578C391.359,263.578 344.926,263.578 344.926,263.578L344.926,261.879L342.656,261.879L342.656,250.254L339.629,250.254L339.629,261.879L337.359,261.879L337.359,263.578L297.676,263.578L297.676,261.879L295.406,261.879L295.406,250.254L258.625,250.254L258.625,261.879L256.359,261.879L256.359,263.578L234.461,263.578L234.461,265.707L225.105,265.707L225.105,263.578L216.676,263.578L216.676,261.879L214.406,261.879L214.406,225.594L216.676,225.594L216.676,223.895L256.359,223.895L256.359,225.594L258.625,225.594L258.625,237.219L295.406,237.219L295.406,225.594L297.676,225.594L297.676,223.895L337.359,223.895L337.359,225.594L339.629,225.594L339.629,237.219L342.656,237.219L342.656,225.594L344.926,225.594L344.926,223.895L394,223.895Z" style="fill:none;stroke:black;stroke-width:0.5px;"/>
    </g>
</svg>
