<?xml version="1.0" encoding="UTF-8" standalone="no"?>
<!DOCTYPE svg PUBLIC "-//W3C//DTD SVG 1.1//EN" "http://www.w3.org/Graphics/SVG/1.1/DTD/svg11.dtd">
<svg width="100%" height="100%" viewBox="0 0 811 272" version="1.1" xmlns="http://www.w3.org/2000/svg" xmlns:xlink="http://www.w3.org/1999/xlink" xml:space="preserve" xmlns:serif="http://www.serif.com/" style="fill-rule:evenodd;clip-rule:evenodd;stroke-miterlimit:1.41421;">
    <g>
        <rect x="0.27" y="0.739" width="810" height="270" style="fill:none;stroke:black;stroke-width:0.5px;"/>
        <rect x="20.926" y="223.895" width="39.684" height="39.684" style="fill:none;stroke:black;stroke-width:0.5px;"/>
        <rect x="88.426" y="223.895" width="39.684" height="39.684" style="fill:none;stroke:black;stroke-width:0.5px;"/>
        <rect x="149.176" y="223.895" width="39.684" height="39.684" style="fill:none;stroke:black;stroke-width:0.5px;"/>
        <rect x="601.426" y="223.895" width="39.684" height="39.684" style="fill:none;stroke:black;stroke-width:0.5px;"/>
        <path d="M41.176,169.895L41.176,183.219L36.852,183.219L36.852,174.063L31.961,174.063L31.961,171.449L22.609,171.449L22.609,174.063L17.719,174.063L17.719,183.219L15.379,183.219L15.379,191.157L17.719,191.157L17.719,208.93L22.609,208.93L22.609,211.707L31.961,211.707L31.961,208.93L36.852,208.93L36.852,196.258L41.176,196.258L41.176,209.578L80.859,209.578L80.859,196.258L85.184,196.258L85.184,208.93L90.074,208.93L90.074,211.707L99.426,211.707L99.426,208.93L104.316,208.93L104.316,191.157L106.656,191.157L106.656,183.219L104.316,183.219L104.316,174.063L99.426,174.063L99.426,171.449L90.074,171.449L90.074,174.063L85.184,174.063L85.184,183.219L80.859,183.219L80.859,169.895L41.176,169.895Z" style="fill:none;stroke:black;stroke-width:0.5px;"/>
        <path d="M128.925,169.895L168.61,169.895L168.61,209.579L128.926,209.579L128.925,169.895Z" style="fill:none;stroke:black;stroke-width:0.5px;"/>
        <rect x="182.926" y="169.895" width="39.684" height="39.684" style="fill:none;stroke:black;stroke-width:0.5px;"/>
        <rect x="236.926" y="169.895" width="39.684" height="39.684" style="fill:none;stroke:black;stroke-width:0.5px;"/>
        <rect x="290.926" y="169.895" width="39.684" height="39.684" style="fill:none;stroke:black;stroke-width:0.5px;"/>
        <rect x="344.926" y="169.895" width="39.684" height="39.684" style="fill:none;stroke:black;stroke-width:0.5px;"/>
        <rect x="398.926" y="169.895" width="39.684" height="39.684" style="fill:none;stroke:black;stroke-width:0.5px;"/>
        <rect x="452.926" y="169.895" width="39.684" height="39.684" style="fill:none;stroke:black;stroke-width:0.5px;"/>
        <rect x="506.926" y="169.895" width="39.684" height="39.684" style="fill:none;stroke:black;stroke-width:0.5px;"/>
        <rect x="560.926" y="169.895" width="39.684" height="39.684" style="fill:none;stroke:black;stroke-width:0.5px;"/>
        <rect x="614.926" y="169.895" width="39.684" height="39.684" style="fill:none;stroke:black;stroke-width:0.5px;"/>
        <rect x="27.676" y="115.895" width="39.684" height="39.684" style="fill:none;stroke:black;stroke-width:0.5px;"/>
        <rect x="101.926" y="115.895" width="39.684" height="39.684" style="fill:none;stroke:black;stroke-width:0.5px;"/>
        <rect x="155.926" y="115.895" width="39.684" height="39.684" style="fill:none;stroke:black;stroke-width:0.5px;"/>
        <rect x="209.926" y="115.895" width="39.684" height="39.684" style="fill:none;stroke:black;stroke-width:0.5px;"/>
        <rect x="263.926" y="115.895" width="39.684" height="39.684" style="fill:none;stroke:black;stroke-width:0.5px;"/>
        <rect x="317.926" y="115.895" width="39.684" height="39.684" style="fill:none;stroke:black;stroke-width:0.5px;"/>
        <rect x="371.926" y="115.895" width="39.684" height="39.684" style="fill:none;stroke:black;stroke-width:0.5px;"/>
        <rect x="425.926" y="115.895" width="39.684" height="39.684" style="fill:none;stroke:black;stroke-width:0.5px;"/>
        <rect x="479.926" y="115.895" width="39.684" height="39.684" style="fill:none;stroke:black;stroke-width:0.5px;"/>
        <rect x="533.926" y="115.895" width="39.684" height="39.684" style="fill:none;stroke:black;stroke-width:0.5px;"/>
        <rect x="587.926" y="115.895" width="39.684" height="39.684" style="fill:none;stroke:black;stroke-width:0.5px;"/>
        <rect x="641.926" y="115.895" width="39.684" height="39.684" style="fill:none;stroke:black;stroke-width:0.5px;"/>
        <rect x="20.926" y="61.895" width="39.684" height="39.684" style="fill:none;stroke:black;stroke-width:0.5px;"/>
        <rect x="88.426" y="61.895" width="39.684" height="39.684" style="fill:none;stroke:black;stroke-width:0.5px;"/>
        <rect x="142.426" y="61.895" width="39.684" height="39.684" style="fill:none;stroke:black;stroke-width:0.5px;"/>
        <rect x="196.426" y="61.895" width="39.684" height="39.684" style="fill:none;stroke:black;stroke-width:0.5px;"/>
        <rect x="250.426" y="61.895" width="39.684" height="39.684" style="fill:none;stroke:black;stroke-width:0.5px;"/>
        <rect x="304.426" y="61.895" width="39.684" height="39.684" style="fill:none;stroke:black;stroke-width:0.5px;"/>
        <rect x="358.426" y="61.895" width="39.684" height="39.684" style="fill:none;stroke:black;stroke-width:0.5px;"/>
        <rect x="412.426" y="61.895" width="39.684" height="39.684" style="fill:none;stroke:black;stroke-width:0.5px;"/>
        <rect x="466.426" y="61.895" width="39.684" height="39.684" style="fill:none;stroke:black;stroke-width:0.5px;"/>
        <rect x="520.426" y="61.895" width="39.684" height="39.684" style="fill:none;stroke:black;stroke-width:0.5px;"/>
        <rect x="574.426" y="61.895" width="39.684" height="39.684" style="fill:none;stroke:black;stroke-width:0.5px;"/>
        <rect x="628.426" y="61.895" width="39.684" height="39.684" style="fill:none;stroke:black;stroke-width:0.5px;"/>
        <rect x="682.426" y="61.895" width="39.684" height="39.684" style="fill:none;stroke:black;stroke-width:0.5px;"/>
        <rect x="7.426" y="7.895" width="39.684" height="39.684" style="fill:none;stroke:black;stroke-width:0.5px;"/>
        <rect x="61.426" y="7.895" width="39.684" height="39.684" style="fill:none;stroke:black;stroke-width:0.5px;"/>
        <rect x="115.426" y="7.895" width="39.684" height="39.684" style="fill:none;stroke:black;stroke-width:0.5px;"/>
        <rect x="169.426" y="7.895" width="39.684" height="39.684" style="fill:none;stroke:black;stroke-width:0.5px;"/>
        <rect x="223.426" y="7.895" width="39.684" height="39.684" style="fill:none;stroke:black;stroke-width:0.5px;"/>
        <rect x="277.422" y="7.895" width="39.688" height="39.684" style="fill:none;stroke:black;stroke-width:0.5px;"/>
        <rect x="331.422" y="7.895" width="39.688" height="39.684" style="fill:none;stroke:black;stroke-width:0.5px;"/>
        <rect x="385.426" y="7.895" width="39.684" height="39.684" style="fill:none;stroke:black;stroke-width:0.5px;"/>
        <rect x="439.426" y="7.895" width="39.684" height="39.684" style="fill:none;stroke:black;stroke-width:0.5px;"/>
        <rect x="493.426" y="7.895" width="39.684" height="39.684" style="fill:none;stroke:black;stroke-width:0.5px;"/>
        <rect x="547.426" y="7.895" width="39.684" height="39.684" style="fill:none;stroke:black;stroke-width:0.5px;"/>
        <rect x="601.426" y="7.895" width="39.684" height="39.684" style="fill:none;stroke:black;stroke-width:0.5px;"/>
        <rect x="655.426" y="7.895" width="39.684" height="39.684" style="fill:none;stroke:black;stroke-width:0.5px;"/>
        <rect x="709.426" y="7.895" width="39.684" height="39.684" style="fill:none;stroke:black;stroke-width:0.5px;"/>
        <rect x="763.426" y="7.895" width="39.684" height="39.684" style="fill:none;stroke:black;stroke-width:0.5px;"/>
        <rect x="540.676" y="223.895" width="46.434" height="39.684" style="fill:none;stroke:black;stroke-width:0.5px;"/>
        <path d="M782.86,209.579L774.426,209.579L774.426,211.707L765.074,211.707L765.074,209.579L743.176,209.579L743.176,209.578L716.172,209.578L716.172,196.258L711.852,196.258L711.852,208.93L708.61,208.93L708.61,209.579L706.961,209.579L706.961,211.707L697.609,211.707L697.609,209.579L668.926,209.579L668.926,169.895L708.61,169.895L708.61,174.063L711.852,174.063L711.852,183.219L716.172,183.219L716.172,169.895L782.86,169.895L782.86,209.579Z" style="fill:none;stroke:black;stroke-width:0.5px;"/>
        <path d="M803.11,263.579L749.926,263.579L749.926,263.579L708.61,263.579L708.61,263.579L655.426,263.579L655.426,223.895L803.11,223.895L803.11,263.579Z" style="fill:none;stroke:black;stroke-width:0.5px;"/>
        <path d="M431.86,223.895L431.86,237.219L473.176,237.219L473.176,223.895L512.86,223.895L512.86,225.449L517.926,225.449L517.926,228.063L522.815,228.063L522.815,237.219L525.152,237.219L525.152,245.157L522.815,245.157L522.815,262.926L517.926,262.926L517.926,265.707L508.57,265.707L508.57,263.579L473.176,263.579L473.176,250.254L431.86,250.254L431.86,263.579L396,263.579L396,263.579L388,263.579L388,263.578L384.61,263.578L384.61,263.579L344.926,263.579L344.926,250.254L337.36,250.254L337.36,263.579L297.676,263.579L297.676,250.254L256.36,250.254L256.36,263.579L234.461,263.579L234.461,265.707L225.105,265.707L225.105,263.579L216.676,263.579L216.676,223.895L256.36,223.895L256.36,237.219L297.676,237.219L297.676,223.895L337.36,223.895L337.36,237.219L344.926,237.219L344.926,223.895L431.86,223.895Z" style="fill:none;stroke:black;stroke-width:0.5px;"/>
        <path d="M789.61,65.438L792.191,65.438L792.191,70.328L794.801,70.328L794.801,79.684L792.191,79.684L792.191,84.571L789.61,84.571L789.61,88.895L796.359,88.895L796.359,128.578L795.152,128.578L795.152,137.157L794.801,137.157L794.801,147.149L792.816,147.149L792.816,154.926L787.926,154.926L787.926,157.707L778.57,157.707L778.57,154.926L773.684,154.926L773.684,152.035L769.359,152.035L769.359,155.578L735.61,155.578L735.61,155.579L720.457,155.579L720.457,157.707L711.105,157.707L711.105,155.579L695.926,155.579L695.926,115.895L756.676,115.895L756.676,101.579L749.926,101.579L749.926,61.895L789.61,61.895L789.61,65.438Z" style="fill:none;stroke:black;stroke-width:0.5px;"/>
    </g>
</svg>
