<?xml version="1.0"?>
<!-- Generated by SVGo -->
<svg width="248.127mm" height="29.052mm"
     viewBox="0.000 0.000 248.127 29.052"
     xmlns="http://www.w3.org/2000/svg" 
     xmlns:xlink="http://www.w3.org/1999/xlink">
<polygon points="243.127,24.052 5.001,24.052 5.001,5.001 243.127,5.001" style="fill:none;stroke-width:0.050000mm;stroke:black"/>
<polygon points="7.526,7.526 7.526,8.126 6.726,8.126 6.726,20.926 7.526,20.926 7.526,21.526 21.526,21.526 21.526,20.926 22.326,20.926 22.326,8.126 21.526,8.126 21.526,7.526" style="fill:none;stroke-width:0.050000mm;stroke:black"/>
<polygon points="26.576,7.526 26.576,8.126 25.776,8.126 25.776,20.926 26.576,20.926 26.576,21.526 40.576,21.526 40.576,20.926 41.376,20.926 41.376,8.126 40.576,8.126 40.576,7.526" style="fill:none;stroke-width:0.050000mm;stroke:black"/>
<polygon points="45.626,7.526 45.626,8.126 44.826,8.126 44.826,20.926 45.626,20.926 45.626,21.526 59.626,21.526 59.626,20.926 60.426,20.926 60.426,8.126 59.626,8.126 59.626,7.526" style="fill:none;stroke-width:0.050000mm;stroke:black"/>
<polygon points="64.676,7.526 64.676,8.126 63.876,8.126 63.876,20.926 64.676,20.926 64.676,21.526 78.676,21.526 78.676,20.926 79.476,20.926 79.476,8.126 78.676,8.126 78.676,7.526" style="fill:none;stroke-width:0.050000mm;stroke:black"/>
<polygon points="93.251,7.526 93.251,8.126 92.451,8.126 92.451,20.926 93.251,20.926 93.251,21.526 107.251,21.526 107.251,20.926 108.051,20.926 108.051,8.126 107.251,8.126 107.251,7.526" style="fill:none;stroke-width:0.050000mm;stroke:black"/>
<polygon points="112.301,7.526 112.301,8.126 111.501,8.126 111.501,20.926 112.301,20.926 112.301,21.526 126.301,21.526 126.301,20.926 127.101,20.926 127.101,8.126 126.301,8.126 126.301,7.526" style="fill:none;stroke-width:0.050000mm;stroke:black"/>
<polygon points="131.351,7.526 131.351,8.126 130.550,8.126 130.550,20.926 131.351,20.926 131.351,21.526 145.351,21.526 145.351,20.926 146.151,20.926 146.151,8.126 145.351,8.126 145.351,7.526" style="fill:none;stroke-width:0.050000mm;stroke:black"/>
<polygon points="159.926,7.526 159.926,8.126 159.126,8.126 159.126,20.926 159.926,20.926 159.926,21.526 173.926,21.526 173.926,20.926 174.726,20.926 174.726,8.126 173.926,8.126 173.926,7.526" style="fill:none;stroke-width:0.050000mm;stroke:black"/>
<polygon points="178.976,7.526 178.976,8.126 178.176,8.126 178.176,20.926 178.976,20.926 178.976,21.526 192.976,21.526 192.976,20.926 193.776,20.926 193.776,8.126 192.976,8.126 192.976,7.526" style="fill:none;stroke-width:0.050000mm;stroke:black"/>
<polygon points="198.026,7.526 198.026,8.126 197.226,8.126 197.226,20.926 198.026,20.926 198.026,21.526 212.026,21.526 212.026,20.926 212.826,20.926 212.826,8.126 212.026,8.126 212.026,7.526" style="fill:none;stroke-width:0.050000mm;stroke:black"/>
<polygon points="226.601,7.526 226.601,8.126 225.801,8.126 225.801,20.926 226.601,20.926 226.601,21.526 240.601,21.526 240.601,20.926 241.401,20.926 241.401,8.126 240.601,8.126 240.601,7.526" style="fill:none;stroke-width:0.050000mm;stroke:black"/>
</svg>
