<?xml version="1.0"?>
<!-- Generated by SVGo -->
<svg width="248.127mm" height="29.052mm"
     viewBox="0.000 0.000 248.127 29.052"
     xmlns="http://www.w3.org/2000/svg" 
     xmlns:xlink="http://www.w3.org/1999/xlink">
<polygon points="243.127,24.052 5.001,24.052 5.001,5.001 243.127,5.001" style="fill:none;stroke-width:0.050000mm;stroke:black"/>
<polygon points="7.526,7.526 7.526,21.526 21.526,21.526 21.526,7.526" style="fill:none;stroke-width:0.050000mm;stroke:black"/>
<polygon points="26.576,7.526 26.576,21.526 40.576,21.526 40.576,7.526" style="fill:none;stroke-width:0.050000mm;stroke:black"/>
<polygon points="45.626,7.526 45.626,21.526 59.626,21.526 59.626,7.526" style="fill:none;stroke-width:0.050000mm;stroke:black"/>
<polygon points="64.676,7.526 64.676,21.526 78.676,21.526 78.676,7.526" style="fill:none;stroke-width:0.050000mm;stroke:black"/>
<polygon points="93.251,7.526 93.251,21.526 107.251,21.526 107.251,7.526" style="fill:none;stroke-width:0.050000mm;stroke:black"/>
<polygon points="112.301,7.526 112.301,21.526 126.301,21.526 126.301,7.526" style="fill:none;stroke-width:0.050000mm;stroke:black"/>
<polygon points="131.351,7.526 131.351,21.526 145.351,21.526 145.351,7.526" style="fill:none;stroke-width:0.050000mm;stroke:black"/>
<polygon points="159.926,7.526 159.926,21.526 173.926,21.526 173.926,7.526" style="fill:none;stroke-width:0.050000mm;stroke:black"/>
<polygon points="178.976,7.526 178.976,21.526 192.976,21.526 192.976,7.526" style="fill:none;stroke-width:0.050000mm;stroke:black"/>
<polygon points="198.026,7.526 198.026,21.526 212.026,21.526 212.026,7.526" style="fill:none;stroke-width:0.050000mm;stroke:black"/>
<polygon points="226.601,7.526 226.601,21.526 240.601,21.526 240.601,7.526" style="fill:none;stroke-width:0.050000mm;stroke:black"/>
</svg>
